<svg xmlns="http://www.w3.org/2000/svg" xmlns:xlink="http://www.w3.org/1999/xlink" width="2119" zoomAndPan="magnify" viewBox="0 0 1589.25 1503.749955" height="2005" preserveAspectRatio="xMidYMid meet" version="1.2"><defs><clipPath id="9e0b49c9d0"><path d="M 0 0.230469 L 1587.808594 0.230469 L 1587.808594 1502.597656 L 0 1502.597656 Z M 0 0.230469 "/></clipPath><clipPath id="6d1681b5ea"><path d="M 22.488281 0.230469 L 1565.445312 0.230469 C 1577.863281 0.230469 1587.933594 10.296875 1587.933594 22.71875 L 1587.933594 1480.207031 C 1587.933594 1492.628906 1577.863281 1502.695312 1565.445312 1502.695312 L 22.488281 1502.695312 C 10.070312 1502.695312 0 1492.628906 0 1480.207031 L 0 22.71875 C 0 10.296875 10.070312 0.230469 22.488281 0.230469 Z M 22.488281 0.230469 "/></clipPath><radialGradient gradientTransform="matrix(1,0,0,1,-0.01028,0.229694)" id="b991e2fca0" gradientUnits="userSpaceOnUse" r="2185.932321" cx="0" fx="0" cy="0" fy="0"><stop style="stop-color:#371bbf;stop-opacity:1;" offset="0"/><stop style="stop-color:#371bbe;stop-opacity:1;" offset="0.00390625"/><stop style="stop-color:#371bbd;stop-opacity:1;" offset="0.0078125"/><stop style="stop-color:#371bbc;stop-opacity:1;" offset="0.0117188"/><stop style="stop-color:#371bbc;stop-opacity:1;" offset="0.015625"/><stop style="stop-color:#371abb;stop-opacity:1;" offset="0.0195312"/><stop style="stop-color:#371aba;stop-opacity:1;" offset="0.0234375"/><stop style="stop-color:#371ab9;stop-opacity:1;" offset="0.0273438"/><stop style="stop-color:#371ab9;stop-opacity:1;" offset="0.03125"/><stop style="stop-color:#371ab8;stop-opacity:1;" offset="0.0351562"/><stop style="stop-color:#371ab7;stop-opacity:1;" offset="0.0390625"/><stop style="stop-color:#371ab6;stop-opacity:1;" offset="0.0429688"/><stop style="stop-color:#371ab6;stop-opacity:1;" offset="0.046875"/><stop style="stop-color:#371ab5;stop-opacity:1;" offset="0.0507812"/><stop style="stop-color:#3719b4;stop-opacity:1;" offset="0.0546875"/><stop style="stop-color:#3719b3;stop-opacity:1;" offset="0.0585938"/><stop style="stop-color:#3619b3;stop-opacity:1;" offset="0.0625"/><stop style="stop-color:#3619b2;stop-opacity:1;" offset="0.0664062"/><stop style="stop-color:#3619b1;stop-opacity:1;" offset="0.0703125"/><stop style="stop-color:#3619b0;stop-opacity:1;" offset="0.0742188"/><stop style="stop-color:#3619b0;stop-opacity:1;" offset="0.078125"/><stop style="stop-color:#3619af;stop-opacity:1;" offset="0.0820312"/><stop style="stop-color:#3619ae;stop-opacity:1;" offset="0.0859375"/><stop style="stop-color:#3619ad;stop-opacity:1;" offset="0.0898438"/><stop style="stop-color:#3618ad;stop-opacity:1;" offset="0.09375"/><stop style="stop-color:#3618ac;stop-opacity:1;" offset="0.0976562"/><stop style="stop-color:#3618ab;stop-opacity:1;" offset="0.101562"/><stop style="stop-color:#3618aa;stop-opacity:1;" offset="0.105469"/><stop style="stop-color:#3618aa;stop-opacity:1;" offset="0.109375"/><stop style="stop-color:#3618a9;stop-opacity:1;" offset="0.113281"/><stop style="stop-color:#3618a8;stop-opacity:1;" offset="0.117188"/><stop style="stop-color:#3618a7;stop-opacity:1;" offset="0.121094"/><stop style="stop-color:#3618a7;stop-opacity:1;" offset="0.125"/><stop style="stop-color:#3617a6;stop-opacity:1;" offset="0.128906"/><stop style="stop-color:#3617a5;stop-opacity:1;" offset="0.132812"/><stop style="stop-color:#3617a5;stop-opacity:1;" offset="0.136719"/><stop style="stop-color:#3617a4;stop-opacity:1;" offset="0.140625"/><stop style="stop-color:#3617a3;stop-opacity:1;" offset="0.144531"/><stop style="stop-color:#3617a2;stop-opacity:1;" offset="0.148438"/><stop style="stop-color:#3617a2;stop-opacity:1;" offset="0.152344"/><stop style="stop-color:#3617a1;stop-opacity:1;" offset="0.15625"/><stop style="stop-color:#3617a0;stop-opacity:1;" offset="0.160156"/><stop style="stop-color:#36179f;stop-opacity:1;" offset="0.164062"/><stop style="stop-color:#36169f;stop-opacity:1;" offset="0.167969"/><stop style="stop-color:#35169e;stop-opacity:1;" offset="0.171875"/><stop style="stop-color:#35169d;stop-opacity:1;" offset="0.175781"/><stop style="stop-color:#35169c;stop-opacity:1;" offset="0.179688"/><stop style="stop-color:#35169c;stop-opacity:1;" offset="0.183594"/><stop style="stop-color:#35169b;stop-opacity:1;" offset="0.1875"/><stop style="stop-color:#35169a;stop-opacity:1;" offset="0.191406"/><stop style="stop-color:#351699;stop-opacity:1;" offset="0.195312"/><stop style="stop-color:#351699;stop-opacity:1;" offset="0.199219"/><stop style="stop-color:#351598;stop-opacity:1;" offset="0.203125"/><stop style="stop-color:#351597;stop-opacity:1;" offset="0.207031"/><stop style="stop-color:#351596;stop-opacity:1;" offset="0.210938"/><stop style="stop-color:#351596;stop-opacity:1;" offset="0.214844"/><stop style="stop-color:#351595;stop-opacity:1;" offset="0.21875"/><stop style="stop-color:#351594;stop-opacity:1;" offset="0.222656"/><stop style="stop-color:#351593;stop-opacity:1;" offset="0.226562"/><stop style="stop-color:#351593;stop-opacity:1;" offset="0.230469"/><stop style="stop-color:#351592;stop-opacity:1;" offset="0.234375"/><stop style="stop-color:#351591;stop-opacity:1;" offset="0.238281"/><stop style="stop-color:#351490;stop-opacity:1;" offset="0.242188"/><stop style="stop-color:#351490;stop-opacity:1;" offset="0.246094"/><stop style="stop-color:#35148f;stop-opacity:1;" offset="0.25"/><stop style="stop-color:#35148e;stop-opacity:1;" offset="0.253906"/><stop style="stop-color:#35148d;stop-opacity:1;" offset="0.257812"/><stop style="stop-color:#35148d;stop-opacity:1;" offset="0.261719"/><stop style="stop-color:#35148c;stop-opacity:1;" offset="0.265625"/><stop style="stop-color:#35148b;stop-opacity:1;" offset="0.269531"/><stop style="stop-color:#35148a;stop-opacity:1;" offset="0.273438"/><stop style="stop-color:#35138a;stop-opacity:1;" offset="0.277344"/><stop style="stop-color:#341389;stop-opacity:1;" offset="0.28125"/><stop style="stop-color:#341388;stop-opacity:1;" offset="0.285156"/><stop style="stop-color:#341387;stop-opacity:1;" offset="0.289062"/><stop style="stop-color:#341387;stop-opacity:1;" offset="0.292969"/><stop style="stop-color:#341386;stop-opacity:1;" offset="0.296875"/><stop style="stop-color:#341385;stop-opacity:1;" offset="0.300781"/><stop style="stop-color:#341384;stop-opacity:1;" offset="0.304688"/><stop style="stop-color:#341384;stop-opacity:1;" offset="0.308594"/><stop style="stop-color:#341383;stop-opacity:1;" offset="0.3125"/><stop style="stop-color:#341282;stop-opacity:1;" offset="0.316406"/><stop style="stop-color:#341281;stop-opacity:1;" offset="0.320312"/><stop style="stop-color:#341281;stop-opacity:1;" offset="0.324219"/><stop style="stop-color:#341280;stop-opacity:1;" offset="0.328125"/><stop style="stop-color:#34127f;stop-opacity:1;" offset="0.332031"/><stop style="stop-color:#34127e;stop-opacity:1;" offset="0.335938"/><stop style="stop-color:#34127e;stop-opacity:1;" offset="0.339844"/><stop style="stop-color:#34127d;stop-opacity:1;" offset="0.34375"/><stop style="stop-color:#34127c;stop-opacity:1;" offset="0.347656"/><stop style="stop-color:#34117b;stop-opacity:1;" offset="0.351562"/><stop style="stop-color:#34117b;stop-opacity:1;" offset="0.355469"/><stop style="stop-color:#34117a;stop-opacity:1;" offset="0.359375"/><stop style="stop-color:#341179;stop-opacity:1;" offset="0.363281"/><stop style="stop-color:#341178;stop-opacity:1;" offset="0.367188"/><stop style="stop-color:#341178;stop-opacity:1;" offset="0.371094"/><stop style="stop-color:#341177;stop-opacity:1;" offset="0.375"/><stop style="stop-color:#341176;stop-opacity:1;" offset="0.378906"/><stop style="stop-color:#341176;stop-opacity:1;" offset="0.382812"/><stop style="stop-color:#341175;stop-opacity:1;" offset="0.386719"/><stop style="stop-color:#331074;stop-opacity:1;" offset="0.390625"/><stop style="stop-color:#331073;stop-opacity:1;" offset="0.394531"/><stop style="stop-color:#331073;stop-opacity:1;" offset="0.398438"/><stop style="stop-color:#331072;stop-opacity:1;" offset="0.402344"/><stop style="stop-color:#331071;stop-opacity:1;" offset="0.40625"/><stop style="stop-color:#331070;stop-opacity:1;" offset="0.410156"/><stop style="stop-color:#331070;stop-opacity:1;" offset="0.414062"/><stop style="stop-color:#33106f;stop-opacity:1;" offset="0.417969"/><stop style="stop-color:#33106e;stop-opacity:1;" offset="0.421875"/><stop style="stop-color:#330f6d;stop-opacity:1;" offset="0.425781"/><stop style="stop-color:#330f6d;stop-opacity:1;" offset="0.429688"/><stop style="stop-color:#330f6c;stop-opacity:1;" offset="0.433594"/><stop style="stop-color:#330f6b;stop-opacity:1;" offset="0.4375"/><stop style="stop-color:#330f6a;stop-opacity:1;" offset="0.441406"/><stop style="stop-color:#330f6a;stop-opacity:1;" offset="0.445312"/><stop style="stop-color:#330f69;stop-opacity:1;" offset="0.449219"/><stop style="stop-color:#330f68;stop-opacity:1;" offset="0.453125"/><stop style="stop-color:#330f67;stop-opacity:1;" offset="0.457031"/><stop style="stop-color:#330f67;stop-opacity:1;" offset="0.460938"/><stop style="stop-color:#330e66;stop-opacity:1;" offset="0.464844"/><stop style="stop-color:#330e65;stop-opacity:1;" offset="0.46875"/><stop style="stop-color:#330e64;stop-opacity:1;" offset="0.472656"/><stop style="stop-color:#330e64;stop-opacity:1;" offset="0.476562"/><stop style="stop-color:#330e63;stop-opacity:1;" offset="0.480469"/><stop style="stop-color:#330e62;stop-opacity:1;" offset="0.484375"/><stop style="stop-color:#330e61;stop-opacity:1;" offset="0.488281"/><stop style="stop-color:#330e61;stop-opacity:1;" offset="0.492188"/><stop style="stop-color:#330e60;stop-opacity:1;" offset="0.496094"/><stop style="stop-color:#320d5f;stop-opacity:1;" offset="0.5"/><stop style="stop-color:#320d5e;stop-opacity:1;" offset="0.503906"/><stop style="stop-color:#320d5e;stop-opacity:1;" offset="0.507812"/><stop style="stop-color:#320d5d;stop-opacity:1;" offset="0.511719"/><stop style="stop-color:#320d5c;stop-opacity:1;" offset="0.515625"/><stop style="stop-color:#320d5b;stop-opacity:1;" offset="0.519531"/><stop style="stop-color:#320d5b;stop-opacity:1;" offset="0.523438"/><stop style="stop-color:#320d5a;stop-opacity:1;" offset="0.527344"/><stop style="stop-color:#320d59;stop-opacity:1;" offset="0.53125"/><stop style="stop-color:#320d58;stop-opacity:1;" offset="0.535156"/><stop style="stop-color:#320c58;stop-opacity:1;" offset="0.539062"/><stop style="stop-color:#320c57;stop-opacity:1;" offset="0.542969"/><stop style="stop-color:#320c56;stop-opacity:1;" offset="0.546875"/><stop style="stop-color:#320c55;stop-opacity:1;" offset="0.550781"/><stop style="stop-color:#320c55;stop-opacity:1;" offset="0.554688"/><stop style="stop-color:#320c54;stop-opacity:1;" offset="0.558594"/><stop style="stop-color:#320c53;stop-opacity:1;" offset="0.5625"/><stop style="stop-color:#320c52;stop-opacity:1;" offset="0.566406"/><stop style="stop-color:#320c52;stop-opacity:1;" offset="0.570312"/><stop style="stop-color:#320b51;stop-opacity:1;" offset="0.574219"/><stop style="stop-color:#320b50;stop-opacity:1;" offset="0.578125"/><stop style="stop-color:#320b4f;stop-opacity:1;" offset="0.582031"/><stop style="stop-color:#320b4f;stop-opacity:1;" offset="0.585938"/><stop style="stop-color:#320b4e;stop-opacity:1;" offset="0.589844"/><stop style="stop-color:#320b4d;stop-opacity:1;" offset="0.59375"/><stop style="stop-color:#320b4c;stop-opacity:1;" offset="0.597656"/><stop style="stop-color:#320b4c;stop-opacity:1;" offset="0.601562"/><stop style="stop-color:#320b4b;stop-opacity:1;" offset="0.605469"/><stop style="stop-color:#310b4a;stop-opacity:1;" offset="0.609375"/><stop style="stop-color:#310a49;stop-opacity:1;" offset="0.613281"/><stop style="stop-color:#310a49;stop-opacity:1;" offset="0.617188"/><stop style="stop-color:#310a48;stop-opacity:1;" offset="0.621094"/><stop style="stop-color:#310a47;stop-opacity:1;" offset="0.625"/><stop style="stop-color:#310a47;stop-opacity:1;" offset="0.628906"/><stop style="stop-color:#310a46;stop-opacity:1;" offset="0.632812"/><stop style="stop-color:#310a45;stop-opacity:1;" offset="0.636719"/><stop style="stop-color:#310a44;stop-opacity:1;" offset="0.640625"/><stop style="stop-color:#310a44;stop-opacity:1;" offset="0.644531"/><stop style="stop-color:#310943;stop-opacity:1;" offset="0.648438"/><stop style="stop-color:#310942;stop-opacity:1;" offset="0.652344"/><stop style="stop-color:#310941;stop-opacity:1;" offset="0.65625"/><stop style="stop-color:#310941;stop-opacity:1;" offset="0.660156"/><stop style="stop-color:#310940;stop-opacity:1;" offset="0.664062"/><stop style="stop-color:#31093f;stop-opacity:1;" offset="0.667969"/><stop style="stop-color:#31093e;stop-opacity:1;" offset="0.671875"/><stop style="stop-color:#31093e;stop-opacity:1;" offset="0.675781"/><stop style="stop-color:#31093d;stop-opacity:1;" offset="0.679688"/><stop style="stop-color:#31083c;stop-opacity:1;" offset="0.683594"/><stop style="stop-color:#31083b;stop-opacity:1;" offset="0.6875"/><stop style="stop-color:#31083b;stop-opacity:1;" offset="0.691406"/><stop style="stop-color:#31083a;stop-opacity:1;" offset="0.695312"/><stop style="stop-color:#310839;stop-opacity:1;" offset="0.699219"/><stop style="stop-color:#310838;stop-opacity:1;" offset="0.703125"/><stop style="stop-color:#310838;stop-opacity:1;" offset="0.707031"/><stop style="stop-color:#310837;stop-opacity:1;" offset="0.710938"/><stop style="stop-color:#300836;stop-opacity:1;" offset="0.714844"/><stop style="stop-color:#300835;stop-opacity:1;" offset="0.71875"/><stop style="stop-color:#300735;stop-opacity:1;" offset="0.722656"/><stop style="stop-color:#300734;stop-opacity:1;" offset="0.726562"/><stop style="stop-color:#300733;stop-opacity:1;" offset="0.730469"/><stop style="stop-color:#300732;stop-opacity:1;" offset="0.734375"/><stop style="stop-color:#300732;stop-opacity:1;" offset="0.738281"/><stop style="stop-color:#300731;stop-opacity:1;" offset="0.742188"/><stop style="stop-color:#300730;stop-opacity:1;" offset="0.746094"/><stop style="stop-color:#30072f;stop-opacity:1;" offset="0.75"/><stop style="stop-color:#30072f;stop-opacity:1;" offset="0.753906"/><stop style="stop-color:#30062e;stop-opacity:1;" offset="0.757812"/><stop style="stop-color:#30062d;stop-opacity:1;" offset="0.761719"/><stop style="stop-color:#30062c;stop-opacity:1;" offset="0.765625"/><stop style="stop-color:#30062c;stop-opacity:1;" offset="0.769531"/><stop style="stop-color:#30062b;stop-opacity:1;" offset="0.773438"/><stop style="stop-color:#30062a;stop-opacity:1;" offset="0.777344"/><stop style="stop-color:#300629;stop-opacity:1;" offset="0.78125"/><stop style="stop-color:#300629;stop-opacity:1;" offset="0.785156"/><stop style="stop-color:#300628;stop-opacity:1;" offset="0.789062"/><stop style="stop-color:#300627;stop-opacity:1;" offset="0.792969"/><stop style="stop-color:#300526;stop-opacity:1;" offset="0.796875"/><stop style="stop-color:#300526;stop-opacity:1;" offset="0.800781"/><stop style="stop-color:#300525;stop-opacity:1;" offset="0.804688"/><stop style="stop-color:#300524;stop-opacity:1;" offset="0.808594"/><stop style="stop-color:#300523;stop-opacity:1;" offset="0.8125"/><stop style="stop-color:#300523;stop-opacity:1;" offset="0.816406"/><stop style="stop-color:#300522;stop-opacity:1;" offset="0.820312"/><stop style="stop-color:#2f0521;stop-opacity:1;" offset="0.824219"/><stop style="stop-color:#2f0520;stop-opacity:1;" offset="0.828125"/><stop style="stop-color:#2f0420;stop-opacity:1;" offset="0.832031"/><stop style="stop-color:#2f041f;stop-opacity:1;" offset="0.835938"/><stop style="stop-color:#2f041e;stop-opacity:1;" offset="0.839844"/><stop style="stop-color:#2f041d;stop-opacity:1;" offset="0.84375"/><stop style="stop-color:#2f041d;stop-opacity:1;" offset="0.847656"/><stop style="stop-color:#2f041c;stop-opacity:1;" offset="0.851562"/><stop style="stop-color:#2f041b;stop-opacity:1;" offset="0.855469"/><stop style="stop-color:#2f041a;stop-opacity:1;" offset="0.859375"/><stop style="stop-color:#2f041a;stop-opacity:1;" offset="0.863281"/><stop style="stop-color:#2f0419;stop-opacity:1;" offset="0.867188"/><stop style="stop-color:#2f0318;stop-opacity:1;" offset="0.871094"/><stop style="stop-color:#2f0317;stop-opacity:1;" offset="0.875"/><stop style="stop-color:#2f0317;stop-opacity:1;" offset="0.878906"/><stop style="stop-color:#2f0316;stop-opacity:1;" offset="0.882812"/><stop style="stop-color:#2f0315;stop-opacity:1;" offset="0.886719"/><stop style="stop-color:#2f0315;stop-opacity:1;" offset="0.890625"/><stop style="stop-color:#2f0314;stop-opacity:1;" offset="0.894531"/><stop style="stop-color:#2f0313;stop-opacity:1;" offset="0.898438"/><stop style="stop-color:#2f0312;stop-opacity:1;" offset="0.902344"/><stop style="stop-color:#2f0212;stop-opacity:1;" offset="0.90625"/><stop style="stop-color:#2f0211;stop-opacity:1;" offset="0.910156"/><stop style="stop-color:#2f0210;stop-opacity:1;" offset="0.914062"/><stop style="stop-color:#2f020f;stop-opacity:1;" offset="0.917969"/><stop style="stop-color:#2f020f;stop-opacity:1;" offset="0.921875"/><stop style="stop-color:#2f020e;stop-opacity:1;" offset="0.925781"/><stop style="stop-color:#2f020d;stop-opacity:1;" offset="0.929688"/><stop style="stop-color:#2e020c;stop-opacity:1;" offset="0.933594"/><stop style="stop-color:#2e020c;stop-opacity:1;" offset="0.9375"/><stop style="stop-color:#2e020b;stop-opacity:1;" offset="0.941406"/><stop style="stop-color:#2e010a;stop-opacity:1;" offset="0.945312"/><stop style="stop-color:#2e0109;stop-opacity:1;" offset="0.949219"/><stop style="stop-color:#2e0109;stop-opacity:1;" offset="0.953125"/><stop style="stop-color:#2e0108;stop-opacity:1;" offset="0.957031"/><stop style="stop-color:#2e0107;stop-opacity:1;" offset="0.960938"/><stop style="stop-color:#2e0106;stop-opacity:1;" offset="0.964844"/><stop style="stop-color:#2e0106;stop-opacity:1;" offset="0.96875"/><stop style="stop-color:#2e0105;stop-opacity:1;" offset="0.972656"/><stop style="stop-color:#2e0104;stop-opacity:1;" offset="0.976562"/><stop style="stop-color:#2e0003;stop-opacity:1;" offset="0.980469"/><stop style="stop-color:#2e0003;stop-opacity:1;" offset="0.984375"/><stop style="stop-color:#2e0002;stop-opacity:1;" offset="0.988281"/><stop style="stop-color:#2e0001;stop-opacity:1;" offset="0.992188"/><stop style="stop-color:#2e0000;stop-opacity:1;" offset="0.996094"/><stop style="stop-color:#2e0000;stop-opacity:1;" offset="1"/></radialGradient></defs><g id="9f2e6ad8a9"><g clip-rule="nonzero" clip-path="url(#9e0b49c9d0)"><g clip-rule="nonzero" clip-path="url(#6d1681b5ea)"><path style=" stroke:none;fill-rule:nonzero;fill:url(#b991e2fca0);" d="M 0 0.230469 L 0 1502.597656 L 1587.808594 1502.597656 L 1587.808594 0.230469 Z M 0 0.230469 "/></g></g><path style=" stroke:none;fill-rule:nonzero;fill:#ffffff;fill-opacity:1;" d="M 614.90625 1189.425781 C 614.574219 1189.871094 614.183594 1190.445312 613.746094 1190.984375 C 613.257812 1191.683594 612.667969 1192.292969 611.984375 1192.808594 C 611.300781 1193.320312 610.554688 1193.71875 609.746094 1193.992188 C 608.9375 1194.269531 608.105469 1194.414062 607.25 1194.421875 C 606.394531 1194.433594 605.558594 1194.308594 604.742188 1194.050781 C 604.332031 1193.9375 603.933594 1193.789062 603.546875 1193.605469 C 603.164062 1193.421875 602.796875 1193.210938 602.449219 1192.964844 C 602.101562 1192.71875 601.777344 1192.445312 601.476562 1192.144531 C 601.175781 1191.84375 600.902344 1191.519531 600.65625 1191.167969 C 600.410156 1190.820312 600.195312 1190.457031 600.015625 1190.070312 C 599.832031 1189.683594 599.683594 1189.289062 599.570312 1188.878906 C 599.453125 1188.46875 599.375 1188.050781 599.332031 1187.625 C 599.292969 1187.203125 599.285156 1186.777344 599.316406 1186.355469 C 599.371094 1185.960938 599.351562 1185.566406 599.265625 1185.179688 C 599.179688 1184.792969 599.023438 1184.429688 598.808594 1184.097656 C 598.589844 1183.765625 598.316406 1183.484375 597.996094 1183.246094 C 597.675781 1183.011719 597.324219 1182.84375 596.9375 1182.734375 C 575.125 1174.199219 554.675781 1163.136719 535.59375 1149.550781 C 531.523438 1146.691406 527.171875 1144.363281 522.535156 1142.570312 C 517.894531 1140.777344 513.109375 1139.570312 508.175781 1138.949219 C 504.347656 1138.222656 500.601562 1138.519531 496.933594 1139.84375 C 491.964844 1141.699219 486.832031 1142.84375 481.542969 1143.277344 C 476.253906 1143.710938 471.007812 1143.414062 465.800781 1142.394531 C 456.308594 1141.027344 447.328125 1138.097656 438.851562 1133.617188 C 437.695312 1132.738281 436.679688 1131.722656 435.800781 1130.570312 C 436.898438 1129.78125 437.898438 1128.558594 439.113281 1128.277344 C 447.410156 1126.308594 455.667969 1123.765625 464.09375 1122.882812 C 476.730469 1121.5625 488.054688 1125.859375 498.207031 1133.484375 C 500.398438 1135.011719 502.804688 1136.046875 505.421875 1136.585938 C 509.742188 1137.578125 514.175781 1138.054688 519.597656 1138.910156 C 518.117188 1137.613281 517.34375 1136.886719 516.519531 1136.21875 C 507.664062 1129.085938 498.835938 1121.9375 489.917969 1114.875 C 488.613281 1113.925781 487.195312 1113.191406 485.667969 1112.664062 C 482.167969 1111.324219 478.480469 1110.398438 475.105469 1108.808594 C 467.679688 1105.304688 460.261719 1105.65625 452.324219 1106.902344 C 446.339844 1107.632812 440.417969 1107.300781 434.550781 1105.898438 C 428.667969 1104.710938 422.984375 1102.894531 417.5 1100.453125 C 412.015625 1098.011719 406.867188 1095.003906 402.046875 1091.425781 C 400.589844 1090.140625 399.210938 1088.777344 397.917969 1087.328125 C 401.566406 1086.476562 404.082031 1085.742188 406.652344 1085.316406 C 421.546875 1082.867188 436.195312 1082.859375 449.503906 1091.277344 C 453.546875 1094.234375 457.421875 1097.394531 461.132812 1100.757812 C 462.628906 1102.03125 464.289062 1103.035156 466.109375 1103.773438 C 471.304688 1105.675781 476.609375 1107.183594 482.03125 1108.296875 C 477.085938 1103.722656 472.148438 1099.148438 467.207031 1094.582031 C 463.878906 1091.792969 460.71875 1088.824219 457.730469 1085.675781 C 449.972656 1076.628906 439.09375 1072.488281 429.011719 1067.171875 C 426.808594 1066.011719 423.585938 1066.71875 420.820312 1066.71875 C 415.648438 1066.695312 410.5625 1066.023438 405.5625 1064.707031 C 400.566406 1063.390625 395.808594 1061.46875 391.296875 1058.941406 C 383.183594 1054.824219 375.933594 1049.523438 369.546875 1043.042969 C 368.488281 1041.910156 367.667969 1040.550781 365.992188 1038.292969 C 369.574219 1038.027344 372.035156 1037.691406 374.5 1037.691406 C 379.371094 1037.492188 384.210938 1037.785156 389.023438 1038.566406 C 393.832031 1039.347656 398.519531 1040.601562 403.078125 1042.332031 C 407.753906 1044.285156 412.046875 1046.878906 415.957031 1050.109375 C 419.863281 1053.339844 423.21875 1057.066406 426.023438 1061.289062 C 427.402344 1063.148438 429.101562 1064.644531 431.117188 1065.78125 C 434.835938 1067.992188 438.773438 1069.832031 443.363281 1072.214844 C 442.902344 1071.414062 442.402344 1070.640625 441.859375 1069.890625 C 430.574219 1056.738281 419.351562 1043.53125 407.894531 1030.527344 C 405.921875 1028.707031 403.671875 1027.347656 401.144531 1026.449219 C 385.296875 1019.269531 376.726562 1006.398438 372.589844 990.085938 C 371.285156 984.953125 370.328125 979.734375 368.992188 973.53125 C 370.699219 973.925781 372.347656 974.492188 373.9375 975.234375 C 386.839844 983.988281 397.320312 994.796875 403.839844 1009.277344 C 406.210938 1014.960938 407.851562 1020.84375 408.757812 1026.933594 C 409.605469 1029.628906 411.046875 1031.957031 413.078125 1033.917969 C 421.589844 1043.75 430.253906 1053.453125 438.878906 1063.1875 C 439.550781 1063.8125 440.261719 1064.390625 441.003906 1064.925781 C 438.886719 1059.226562 437.320312 1054.203125 435.125 1049.476562 C 433.835938 1047.382812 432.195312 1045.613281 430.203125 1044.167969 C 417.757812 1033.179688 413.367188 1018.960938 413.65625 1002.90625 C 413.734375 998.488281 414.199219 994.066406 414.636719 989.667969 C 414.910156 988.089844 415.296875 986.542969 415.804688 985.027344 L 417.011719 984.488281 C 419.46875 987.128906 421.769531 989.898438 423.90625 992.800781 C 432.492188 1005.800781 438.441406 1019.78125 438.445312 1035.675781 C 438.445312 1039.367188 437.1875 1043.074219 437.335938 1046.730469 C 437.660156 1049.835938 438.433594 1052.828125 439.660156 1055.703125 C 441.125 1059.777344 442.863281 1063.757812 444.605469 1067.722656 C 445.152344 1069.035156 445.921875 1070.199219 446.910156 1071.214844 C 455.589844 1079.609375 464.3125 1087.957031 473.074219 1096.265625 C 473.703125 1096.757812 474.359375 1097.214844 475.035156 1097.640625 C 474.03125 1093.65625 473.027344 1090.527344 472.476562 1087.324219 C 472.121094 1084.890625 471.414062 1082.5625 470.355469 1080.34375 C 469.300781 1078.121094 467.941406 1076.105469 466.28125 1074.292969 C 455.628906 1062.664062 452.84375 1048.597656 454.585938 1033.402344 C 455.285156 1028.296875 456.253906 1023.246094 457.492188 1018.242188 C 458.019531 1016.871094 458.726562 1015.597656 459.617188 1014.425781 C 460.851562 1015.214844 461.9375 1016.179688 462.863281 1017.320312 C 465.417969 1021.523438 467.683594 1025.878906 469.664062 1030.382812 C 473.976562 1041 476.796875 1052.023438 475.90625 1063.609375 C 475.570312 1068 474.261719 1072.3125 473.523438 1076.671875 C 473.066406 1078.460938 472.964844 1080.269531 473.207031 1082.097656 C 474.511719 1087.691406 476.09375 1093.214844 477.71875 1098.722656 C 478.082031 1100.105469 478.777344 1101.289062 479.804688 1102.28125 C 489.449219 1110.464844 499.203125 1118.546875 508.941406 1126.640625 C 509.535156 1127.003906 510.15625 1127.320312 510.800781 1127.589844 C 510.542969 1125.769531 510.386719 1124.46875 510.167969 1123.183594 C 509.96875 1122.027344 509.605469 1120.894531 509.484375 1119.734375 C 509.027344 1115.910156 508.054688 1112.21875 506.578125 1108.664062 C 505.097656 1105.105469 503.167969 1101.816406 500.78125 1098.792969 C 493.109375 1088.308594 491.398438 1075.910156 493.410156 1063.199219 C 494.589844 1056.992188 496.082031 1050.859375 497.882812 1044.804688 C 498.363281 1043.785156 498.996094 1042.871094 499.785156 1042.066406 C 500.671875 1042.757812 501.886719 1043.257812 502.398438 1044.160156 C 506.191406 1050.613281 509.042969 1057.453125 510.957031 1064.691406 C 512.867188 1071.925781 513.765625 1079.28125 513.652344 1086.765625 C 513.546875 1093.503906 512.238281 1100 509.734375 1106.257812 C 509.324219 1107.621094 509.292969 1108.988281 509.644531 1110.367188 C 510.796875 1116.230469 512 1122.09375 513.417969 1127.898438 C 513.789062 1129.519531 514.597656 1130.875 515.851562 1131.96875 C 540.664062 1151.277344 567.496094 1167.191406 596.339844 1179.703125 C 596.871094 1180.03125 597.441406 1180.269531 598.050781 1180.417969 C 598.65625 1180.566406 599.273438 1180.617188 599.898438 1180.570312 C 600.519531 1180.519531 601.121094 1180.378906 601.699219 1180.140625 C 602.277344 1179.90625 602.808594 1179.582031 603.285156 1179.179688 C 607.0625 1176.253906 612.742188 1178.347656 614.621094 1182.984375 C 614.953125 1184.03125 615.515625 1184.9375 616.300781 1185.703125 C 617.085938 1186.472656 618.003906 1187.011719 619.058594 1187.320312 C 626.640625 1189.867188 634.105469 1192.761719 641.667969 1195.359375 C 642.1875 1195.488281 642.703125 1195.488281 643.222656 1195.363281 C 643.742188 1195.238281 644.199219 1195 644.601562 1194.648438 C 644.925781 1194.152344 645.289062 1193.691406 645.6875 1193.257812 C 646.089844 1192.824219 646.527344 1192.429688 646.996094 1192.070312 C 647.464844 1191.710938 647.960938 1191.390625 648.480469 1191.117188 C 649.003906 1190.839844 649.546875 1190.609375 650.105469 1190.425781 C 650.667969 1190.242188 651.242188 1190.105469 651.824219 1190.019531 C 652.410156 1189.933594 652.996094 1189.894531 653.585938 1189.90625 C 654.175781 1189.917969 654.761719 1189.980469 655.34375 1190.089844 C 655.921875 1190.199219 656.488281 1190.359375 657.042969 1190.566406 C 657.597656 1190.722656 658.132812 1190.929688 658.652344 1191.179688 C 659.171875 1191.433594 659.664062 1191.726562 660.128906 1192.066406 C 660.597656 1192.402344 661.03125 1192.777344 661.433594 1193.191406 C 661.835938 1193.601562 662.199219 1194.046875 662.523438 1194.523438 C 662.847656 1195 663.128906 1195.5 663.367188 1196.027344 C 663.605469 1196.550781 663.796875 1197.09375 663.9375 1197.652344 C 664.082031 1198.210938 664.175781 1198.777344 664.222656 1199.351562 C 664.265625 1199.925781 664.261719 1200.5 664.207031 1201.074219 C 664.25 1201.40625 664.347656 1201.726562 664.488281 1202.027344 C 826.574219 1247.433594 1011.320312 1202.707031 1136.929688 1071.472656 C 1206.675781 998.597656 1249.59375 911.96875 1265.007812 812.128906 C 1280.402344 712.382812 1264.710938 617.261719 1221.09375 526.519531 C 1223.40625 524.636719 1224.761719 524.941406 1226.117188 527.765625 C 1238.003906 551.980469 1247.636719 577.066406 1255.015625 603.011719 C 1258.984375 617.46875 1262.757812 632.003906 1265.910156 646.65625 C 1268.160156 657.105469 1269.285156 667.820312 1270.820312 678.425781 C 1273.910156 700.714844 1275.273438 723.113281 1274.914062 745.613281 C 1274.78125 758.828125 1274.109375 772.085938 1272.703125 785.21875 C 1271.03125 800.851562 1268.976562 816.5 1265.925781 831.914062 C 1264.554688 838.953125 1263.023438 845.957031 1261.335938 852.929688 C 1259.652344 859.902344 1257.8125 866.832031 1255.816406 873.722656 C 1253.824219 880.613281 1251.675781 887.457031 1249.378906 894.25 C 1247.082031 901.046875 1244.632812 907.785156 1242.035156 914.472656 C 1239.433594 921.15625 1236.6875 927.78125 1233.796875 934.34375 C 1230.902344 940.910156 1227.863281 947.402344 1224.683594 953.832031 C 1221.5 960.261719 1218.175781 966.617188 1214.710938 972.894531 C 1211.246094 979.175781 1207.644531 985.375 1203.902344 991.496094 C 1200.164062 997.617188 1196.289062 1003.652344 1192.277344 1009.597656 C 1188.269531 1015.546875 1184.128906 1021.402344 1179.859375 1027.167969 C 1175.589844 1032.929688 1171.195312 1038.597656 1166.671875 1044.164062 C 1162.152344 1049.730469 1157.507812 1055.195312 1152.742188 1060.558594 C 1147.976562 1065.917969 1143.097656 1071.171875 1138.097656 1076.316406 C 1133.097656 1081.460938 1127.988281 1086.492188 1122.765625 1091.410156 C 1117.542969 1096.324219 1112.214844 1101.125 1106.777344 1105.804688 C 1101.34375 1110.484375 1095.804688 1115.039062 1090.167969 1119.472656 C 1059.292969 1143.785156 1025.914062 1163.964844 990.039062 1180.007812 C 968.917969 1189.777344 947.128906 1197.707031 924.671875 1203.800781 C 912.464844 1206.933594 900.246094 1210.089844 887.910156 1212.640625 C 876.78125 1214.945312 865.539062 1216.851562 854.257812 1218.183594 C 840.007812 1219.863281 825.6875 1221.066406 811.363281 1221.945312 C 800.269531 1222.621094 789.121094 1222.664062 778.003906 1222.636719 C 770.625 1222.636719 763.265625 1222.269531 755.925781 1221.53125 C 744.589844 1220.359375 733.28125 1218.886719 722.007812 1217.195312 C 710.648438 1215.496094 699.328125 1213.550781 688.046875 1211.371094 C 681.125 1210.015625 674.347656 1207.953125 667.503906 1206.195312 C 665.195312 1205.605469 663.324219 1205.308594 661.464844 1207.78125 C 660.902344 1208.546875 660.234375 1209.203125 659.460938 1209.757812 C 658.6875 1210.308594 657.847656 1210.730469 656.941406 1211.015625 C 656.035156 1211.300781 655.105469 1211.4375 654.15625 1211.425781 C 653.203125 1211.414062 652.28125 1211.257812 651.378906 1210.953125 C 650.832031 1210.839844 650.296875 1210.6875 649.773438 1210.488281 C 649.25 1210.292969 648.746094 1210.054688 648.261719 1209.777344 C 647.773438 1209.5 647.3125 1209.1875 646.878906 1208.835938 C 646.445312 1208.484375 646.039062 1208.101562 645.664062 1207.683594 C 645.289062 1207.269531 644.953125 1206.828125 644.648438 1206.359375 C 644.34375 1205.886719 644.078125 1205.398438 643.855469 1204.886719 C 643.628906 1204.375 643.445312 1203.847656 643.304688 1203.308594 C 643.160156 1202.765625 643.0625 1202.21875 643.011719 1201.660156 C 643.019531 1201.261719 642.964844 1200.871094 642.839844 1200.492188 C 642.71875 1200.113281 642.539062 1199.761719 642.296875 1199.441406 C 642.054688 1199.125 641.769531 1198.855469 641.4375 1198.632812 C 641.105469 1198.410156 640.746094 1198.25 640.359375 1198.148438 C 631.910156 1195.28125 623.488281 1192.378906 614.90625 1189.425781 Z M 372.792969 977.480469 C 378.019531 990.511719 388.117188 1006.859375 399.566406 1021.230469 C 401.285156 1023.390625 402.695312 1025.777344 405.855469 1026.089844 C 405.515625 1022.351562 377.453125 980.886719 372.792969 977.480469 Z M 424.898438 1064.414062 C 421.761719 1057.984375 381.546875 1040.988281 370.855469 1041.480469 C 374.417969 1043.230469 377.125 1044.679688 379.921875 1045.917969 C 393.246094 1051.824219 406.589844 1057.6875 419.949219 1063.503906 C 421.570312 1063.980469 423.21875 1064.28125 424.898438 1064.414062 Z M 460.34375 1103.503906 C 455.585938 1097.484375 411.777344 1087.214844 403.925781 1089.808594 C 404.71875 1090.171875 405.527344 1090.488281 406.355469 1090.765625 C 422.648438 1095.023438 438.949219 1099.253906 455.257812 1103.457031 C 456.953125 1103.652344 458.648438 1103.667969 460.34375 1103.503906 Z M 500.714844 1047.304688 C 500.496094 1048.808594 500.28125 1049.78125 500.222656 1050.769531 C 499.148438 1067.394531 502.007812 1083.664062 504.824219 1099.925781 C 505.382812 1101.492188 506.152344 1102.957031 507.125 1104.308594 C 509.054688 1100.75 503.378906 1052.445312 500.714844 1047.304688 Z M 434.160156 1045.394531 L 435.96875 1044.589844 C 430.011719 1026.335938 425.617188 1007.601562 418.25 989.761719 C 418.195312 993.875 418.636719 997.933594 419.574219 1001.9375 C 423.21875 1015.042969 427.140625 1028.0625 431.125 1041.082031 C 431.917969 1042.675781 432.925781 1044.113281 434.160156 1045.394531 Z M 469.664062 1075.910156 C 472.246094 1072.351562 463.402344 1022.757812 460.535156 1019.789062 C 460.535156 1021.464844 460.535156 1022.851562 460.535156 1024.238281 C 460.417969 1039.726562 463.902344 1054.6875 467.246094 1069.65625 C 467.890625 1071.804688 468.695312 1073.890625 469.664062 1075.910156 Z M 498.011719 1136.839844 C 493.152344 1131.730469 448.9375 1128.199219 441.539062 1131.882812 C 441.980469 1132.101562 442.4375 1132.273438 442.914062 1132.390625 C 459.90625 1134.183594 476.898438 1135.984375 493.902344 1137.6875 C 495.308594 1137.589844 496.679688 1137.304688 498.011719 1136.832031 Z M 498.011719 1136.839844 "/><path style=" stroke:none;fill-rule:nonzero;fill:#ffffff;fill-opacity:1;" d="M 1224.925781 511.566406 C 1219.097656 510.46875 1215.882812 507.4375 1212.667969 504.691406 C 1202.191406 495.757812 1193.453125 485.414062 1188.667969 472.300781 C 1187.414062 468.054688 1186.410156 463.746094 1185.652344 459.382812 C 1185.496094 457.878906 1185.027344 456.480469 1184.246094 455.183594 C 1174.84375 444.109375 1165.316406 433.140625 1155.8125 422.152344 C 1155.378906 421.675781 1154.847656 421.378906 1154.214844 421.269531 C 1156.910156 428.265625 1157.851562 435.855469 1164.308594 441.230469 C 1174.585938 449.792969 1179.40625 461.457031 1180.117188 474.589844 C 1180.21875 481.730469 1179.921875 488.851562 1179.230469 495.957031 C 1178.929688 497.613281 1178.480469 499.226562 1177.882812 500.796875 C 1176.464844 499.714844 1175.140625 498.523438 1173.914062 497.222656 C 1164.609375 485.140625 1157.675781 471.9375 1156.523438 456.457031 C 1156.074219 450.476562 1157.125 444.402344 1156.9375 438.371094 C 1156.660156 435.246094 1155.921875 432.230469 1154.726562 429.328125 C 1153.289062 425.242188 1151.539062 421.265625 1149.804688 417.289062 C 1149.277344 415.972656 1148.527344 414.796875 1147.558594 413.761719 C 1139.1875 405.554688 1130.769531 397.394531 1122.300781 389.285156 C 1121.636719 388.695312 1120.867188 388.328125 1119.992188 388.179688 C 1122.417969 395.710938 1121.933594 403.984375 1128.03125 410.433594 C 1137.574219 420.542969 1141.046875 433.109375 1139.957031 446.765625 C 1139.167969 453.625 1138.003906 460.421875 1136.464844 467.15625 C 1136.007812 468.3125 1135.367188 469.355469 1134.542969 470.289062 C 1133.554688 469.5625 1132.238281 469.042969 1131.636719 468.078125 C 1127.585938 461.855469 1124.445312 455.203125 1122.210938 448.121094 C 1119.976562 441.039062 1118.726562 433.789062 1118.46875 426.367188 C 1118.296875 419.636719 1119.28125 413.078125 1121.421875 406.691406 C 1121.703125 405.425781 1121.6875 404.164062 1121.375 402.90625 C 1121.058594 401.0625 1120.527344 399.253906 1120.042969 397.441406 C 1116.285156 383.429688 1116.300781 383.410156 1105.1875 374.003906 C 1099.371094 369.082031 1093.484375 364.242188 1087.601562 359.394531 C 1086.496094 358.457031 1085.226562 357.917969 1083.78125 357.789062 C 1084.503906 361.417969 1085.5 365.023438 1085.890625 368.683594 C 1086.140625 371.308594 1086.769531 373.835938 1087.777344 376.269531 C 1088.785156 378.703125 1090.128906 380.9375 1091.800781 382.972656 C 1093.585938 385.132812 1095.140625 387.441406 1096.472656 389.90625 C 1097.800781 392.367188 1098.882812 394.9375 1099.710938 397.609375 C 1100.542969 400.28125 1101.105469 403.011719 1101.402344 405.792969 C 1101.699219 408.578125 1101.726562 411.363281 1101.480469 414.152344 C 1100.769531 422.59375 1098.445312 430.921875 1096.65625 439.257812 C 1096.402344 440.449219 1095.144531 441.421875 1094.351562 442.496094 C 1093.253906 441.699219 1092.292969 440.761719 1091.472656 439.683594 C 1089.347656 435.996094 1087.527344 432.164062 1086.015625 428.1875 C 1084.503906 424.210938 1083.320312 420.140625 1082.460938 415.972656 C 1081.601562 411.804688 1081.078125 407.597656 1080.890625 403.347656 C 1080.707031 399.097656 1080.859375 394.859375 1081.351562 390.632812 C 1081.78125 387.179688 1083.230469 383.863281 1083.914062 380.429688 C 1084.566406 377.882812 1084.789062 375.300781 1084.578125 372.679688 C 1083.78125 367.460938 1082.710938 362.300781 1081.363281 357.195312 C 1080.960938 355.34375 1080.0625 353.78125 1078.664062 352.503906 C 1054.109375 333.199219 1027.542969 317.246094 998.960938 304.644531 C 998.402344 304.296875 997.804688 304.042969 997.167969 303.875 C 996.53125 303.710938 995.886719 303.640625 995.226562 303.671875 C 994.570312 303.703125 993.933594 303.832031 993.316406 304.054688 C 992.695312 304.28125 992.125 304.589844 991.601562 304.988281 C 991.132812 305.304688 990.636719 305.558594 990.109375 305.761719 C 989.582031 305.960938 989.039062 306.097656 988.480469 306.175781 C 987.921875 306.25 987.359375 306.265625 986.796875 306.210938 C 986.238281 306.160156 985.6875 306.046875 985.152344 305.871094 C 984.617188 305.695312 984.109375 305.457031 983.625 305.167969 C 983.144531 304.875 982.703125 304.53125 982.296875 304.136719 C 981.894531 303.742188 981.539062 303.308594 981.234375 302.835938 C 980.929688 302.359375 980.683594 301.855469 980.492188 301.328125 C 980.09375 300.234375 979.476562 299.277344 978.644531 298.464844 C 977.808594 297.648438 976.84375 297.054688 975.738281 296.679688 C 967.914062 293.691406 960.125 290.605469 952.304688 287.601562 C 951.914062 287.421875 951.503906 287.304688 951.078125 287.25 C 950.652344 287.195312 950.226562 287.203125 949.800781 287.28125 C 949.378906 287.355469 948.976562 287.492188 948.59375 287.695312 C 948.214844 287.894531 947.871094 288.144531 947.566406 288.449219 C 947.230469 288.734375 946.882812 288.996094 946.515625 289.238281 C 946.148438 289.480469 945.765625 289.695312 945.371094 289.890625 C 944.976562 290.082031 944.574219 290.25 944.160156 290.394531 C 943.742188 290.535156 943.320312 290.652344 942.890625 290.742188 C 942.460938 290.832031 942.027344 290.894531 941.589844 290.929688 C 941.152344 290.964844 940.714844 290.972656 940.277344 290.953125 C 939.835938 290.933594 939.402344 290.886719 938.96875 290.8125 C 938.535156 290.738281 938.109375 290.640625 937.691406 290.511719 C 937.269531 290.386719 936.859375 290.234375 936.457031 290.054688 C 936.058594 289.875 935.667969 289.671875 935.292969 289.445312 C 934.917969 289.21875 934.558594 288.96875 934.210938 288.699219 C 933.867188 288.425781 933.542969 288.132812 933.234375 287.820312 C 932.925781 287.507812 932.636719 287.179688 932.371094 286.828125 C 932.105469 286.480469 931.859375 286.117188 931.640625 285.738281 C 931.417969 285.359375 931.222656 284.964844 931.050781 284.5625 C 930.875 284.160156 930.730469 283.746094 930.609375 283.324219 C 930.5 282.796875 930.3125 282.300781 930.050781 281.832031 C 929.785156 281.363281 929.457031 280.945312 929.0625 280.578125 C 928.671875 280.210938 928.230469 279.914062 927.746094 279.679688 C 927.261719 279.449219 926.75 279.296875 926.21875 279.222656 C 910.703125 275.695312 895.335938 271.457031 879.742188 268.335938 C 866.941406 265.753906 854.039062 263.886719 841.035156 262.734375 C 822.519531 261.125 803.925781 259.953125 785.347656 259.652344 C 772.109375 259.632812 758.914062 260.363281 745.757812 261.84375 C 733.488281 263.050781 721.3125 265.261719 709.097656 267.039062 C 687.929688 270.332031 667.164062 275.296875 646.800781 281.9375 C 612.914062 292.574219 580.632812 306.851562 549.964844 324.769531 C 527.546875 337.886719 506.308594 352.691406 486.238281 369.179688 C 465.886719 385.828125 447.0625 404.054688 429.769531 423.859375 C 412.027344 444.15625 396.117188 465.796875 382.03125 488.78125 C 367.945312 511.765625 355.886719 535.765625 345.855469 560.789062 C 338.296875 579.164062 332.121094 597.992188 327.339844 617.28125 C 324.289062 630.019531 321.167969 642.75 318.644531 655.601562 C 316.925781 664.371094 316.339844 673.355469 314.980469 682.203125 C 310.746094 709.769531 311.335938 737.519531 311.964844 765.238281 C 312.199219 775.464844 313.828125 785.667969 314.996094 795.863281 C 316.03125 804.871094 317.042969 813.898438 318.566406 822.832031 C 319.972656 831.050781 321.828125 839.210938 323.855469 847.300781 C 326.699219 858.648438 329.730469 869.949219 332.953125 881.199219 C 338.550781 900.160156 345.496094 918.613281 353.785156 936.558594 C 356.945312 943.546875 360.21875 950.492188 363.714844 957.320312 C 364.878906 959.605469 364.070312 960.148438 361.796875 960.820312 C 358.261719 953.527344 354.3125 946.492188 351.347656 939.058594 C 343.953125 920.515625 336.464844 901.976562 330.074219 883.082031 C 325.632812 869.949219 322.792969 856.261719 319.542969 842.746094 C 317.429688 833.957031 315.65625 825.0625 314.117188 816.15625 C 312.957031 809.398438 312.558594 802.511719 311.582031 795.722656 C 308.519531 772.230469 307.476562 748.652344 308.453125 724.984375 C 308.835938 711.351562 310.296875 697.742188 311.59375 684.148438 C 312.476562 674.886719 313.707031 665.644531 315.171875 656.457031 C 316.410156 648.667969 317.945312 640.90625 319.820312 633.25 C 322.46875 622.445312 325.449219 611.722656 328.464844 601.011719 C 334.464844 580.214844 341.96875 559.976562 350.972656 540.296875 C 355.863281 529.46875 361.152344 518.835938 366.828125 508.402344 C 372.503906 497.964844 378.558594 487.75 384.988281 477.757812 C 391.417969 467.769531 398.207031 458.027344 405.355469 448.539062 C 412.503906 439.046875 419.992188 429.832031 427.820312 420.894531 C 435.644531 411.957031 443.792969 403.316406 452.253906 394.980469 C 460.71875 386.640625 469.476562 378.625 478.53125 370.933594 C 487.585938 363.242188 496.910156 355.890625 506.507812 348.886719 C 516.105469 341.882812 525.945312 335.238281 536.03125 328.957031 C 563.035156 311.933594 591.527344 297.941406 621.507812 286.984375 C 637.542969 281.210938 653.898438 276.238281 670.324219 271.671875 C 683.171875 268.097656 696.285156 265.390625 709.394531 262.902344 C 718.640625 261.148438 728.085938 260.441406 737.433594 259.207031 C 759.648438 256.335938 781.945312 255.292969 804.332031 256.074219 C 817.625 256.503906 830.886719 257.992188 844.148438 259.164062 C 851.230469 259.789062 858.320312 260.5 865.332031 261.628906 C 874.394531 263.09375 883.410156 264.816406 892.382812 266.796875 C 902.25 268.960938 912.027344 271.515625 921.839844 273.921875 C 922.734375 274.140625 923.59375 274.523438 924.476562 274.796875 C 927.789062 275.800781 930.621094 276.855469 933.320312 272.769531 C 935.796875 269.03125 940.445312 268.867188 944.535156 270.386719 C 945.03125 270.535156 945.511719 270.722656 945.976562 270.949219 C 946.441406 271.179688 946.882812 271.445312 947.304688 271.746094 C 947.722656 272.046875 948.113281 272.382812 948.476562 272.75 C 948.84375 273.121094 949.171875 273.515625 949.46875 273.941406 C 949.765625 274.363281 950.023438 274.808594 950.246094 275.277344 C 950.46875 275.742188 950.648438 276.226562 950.789062 276.722656 C 950.929688 277.222656 951.027344 277.730469 951.082031 278.242188 C 951.140625 278.757812 951.152344 279.273438 951.121094 279.789062 C 951 282.589844 952.109375 283.488281 954.609375 284.371094 C 962.5 287.15625 970.226562 290.398438 978.085938 293.289062 C 978.691406 293.4375 979.296875 293.445312 979.90625 293.320312 C 980.519531 293.195312 981.070312 292.945312 981.570312 292.570312 C 982.128906 291.964844 982.761719 291.449219 983.46875 291.027344 C 984.175781 290.601562 984.925781 290.285156 985.722656 290.078125 C 986.519531 289.871094 987.332031 289.777344 988.15625 289.800781 C 988.980469 289.828125 989.78125 289.96875 990.566406 290.222656 C 994.265625 291.476562 995.410156 294.480469 995.660156 297.886719 C 995.628906 298.289062 995.671875 298.683594 995.777344 299.070312 C 995.882812 299.457031 996.050781 299.816406 996.277344 300.144531 C 996.507812 300.472656 996.785156 300.757812 997.109375 300.992188 C 997.433594 301.230469 997.789062 301.402344 998.171875 301.519531 C 1020.480469 310.226562 1040.996094 322.296875 1060.609375 335.835938 C 1063.871094 338.21875 1067.363281 340.183594 1071.089844 341.730469 C 1074.816406 343.277344 1078.671875 344.367188 1082.65625 345 C 1088.339844 345.824219 1093.625 346.714844 1099.425781 344.417969 C 1108.984375 340.628906 1119.117188 340.683594 1129.222656 342.492188 C 1138.832031 343.933594 1147.902344 346.984375 1156.425781 351.648438 C 1157.378906 352.433594 1158.183594 353.34375 1158.847656 354.382812 C 1158.171875 355.136719 1157.394531 355.761719 1156.511719 356.261719 C 1141.941406 361.488281 1127.140625 365.074219 1111.925781 359.34375 C 1106.632812 357.351562 1101.875 353.949219 1096.792969 351.351562 C 1094.183594 349.902344 1091.445312 348.757812 1088.578125 347.921875 C 1084.621094 346.976562 1080.613281 346.574219 1076.550781 346.71875 C 1077.445312 347.535156 1078.300781 348.398438 1079.238281 349.164062 C 1087.773438 356.132812 1096.300781 363.113281 1104.894531 370.015625 C 1106.105469 370.914062 1107.429688 371.605469 1108.859375 372.089844 C 1112.695312 373.542969 1116.628906 374.75 1120.429688 376.28125 C 1123.355469 377.605469 1126.414062 378.453125 1129.605469 378.820312 C 1132.796875 379.1875 1135.96875 379.058594 1139.117188 378.433594 C 1143.816406 377.578125 1148.542969 377.367188 1153.300781 377.804688 C 1158.058594 378.242188 1162.667969 379.304688 1167.132812 381 C 1176.421875 383.816406 1184.949219 388.144531 1192.710938 393.976562 C 1193.699219 395.03125 1194.527344 396.207031 1195.183594 397.496094 C 1194.054688 398.277344 1192.828125 398.84375 1191.5 399.195312 C 1182.765625 399.816406 1173.964844 401.0625 1165.28125 400.53125 C 1152.875 399.773438 1142.59375 393.746094 1133.933594 384.824219 C 1131.996094 382.988281 1129.773438 381.617188 1127.261719 380.71875 C 1122.574219 378.882812 1117.75 377.535156 1112.789062 376.679688 C 1117.648438 381.210938 1122.503906 385.742188 1127.363281 390.273438 C 1130.84375 393.246094 1134.152344 396.394531 1137.292969 399.71875 C 1144.917969 408.5625 1155.632812 412.539062 1165.445312 417.878906 C 1167.535156 419.015625 1170.671875 418.3125 1173.332031 418.316406 C 1178.570312 418.351562 1183.71875 419.046875 1188.78125 420.402344 C 1193.84375 421.757812 1198.652344 423.730469 1203.207031 426.316406 C 1211.523438 430.585938 1218.890625 436.113281 1225.3125 442.902344 C 1226.03125 443.929688 1226.613281 445.023438 1227.058594 446.191406 C 1226.003906 446.828125 1224.875 447.269531 1223.671875 447.515625 C 1208.214844 447.816406 1193.03125 446.609375 1180.390625 436.367188 C 1176.15625 432.847656 1172.390625 428.882812 1169.097656 424.476562 C 1167.179688 421.78125 1164.730469 419.714844 1161.75 418.277344 C 1158.609375 416.636719 1155.371094 415.214844 1152.039062 414.007812 C 1152.527344 414.691406 1152.96875 415.414062 1153.507812 416.054688 C 1164.335938 428.832031 1175.09375 441.667969 1186.101562 454.285156 C 1188.136719 456.226562 1190.472656 457.691406 1193.105469 458.679688 C 1208.566406 465.820312 1217.046875 478.453125 1221.269531 494.371094 C 1222.6875 499.734375 1223.585938 505.230469 1224.925781 511.566406 Z M 1221.257812 507.644531 C 1219.601562 503.582031 1217.707031 499.636719 1215.570312 495.808594 C 1208.285156 484.429688 1200.75 473.207031 1193.164062 462.027344 C 1191.820312 460.664062 1190.304688 459.523438 1188.621094 458.613281 C 1188.625 462.789062 1216.453125 504.386719 1221.25 507.644531 Z M 1124.058594 408.5 C 1122.320312 412.675781 1130.765625 461.355469 1133.359375 464.910156 C 1133.503906 464.1875 1133.605469 463.457031 1133.671875 462.722656 C 1134.074219 445.683594 1130.273438 429.230469 1126.621094 412.765625 C 1125.964844 411.222656 1125.109375 409.804688 1124.058594 408.5 Z M 1160.003906 439.449219 C 1158.550781 443.605469 1172.902344 492.222656 1176.25 495.339844 C 1175.933594 491.273438 1175.363281 487.242188 1174.535156 483.25 C 1170.972656 470.171875 1167.144531 457.164062 1163.25 444.179688 C 1162.390625 442.445312 1161.308594 440.867188 1160.003906 439.445312 Z M 1134.789062 381.671875 C 1138.371094 387.21875 1180.917969 397.5625 1190.023438 395.316406 C 1189.519531 394.96875 1188.984375 394.671875 1188.417969 394.4375 C 1171.9375 390.046875 1155.457031 385.652344 1138.945312 381.375 C 1137.542969 381.261719 1136.15625 381.363281 1134.789062 381.671875 Z M 1223.171875 444.023438 C 1222.367188 443.429688 1221.53125 442.882812 1220.664062 442.386719 C 1205.242188 435.417969 1189.808594 428.476562 1174.359375 421.558594 C 1172.898438 421.140625 1171.40625 420.902344 1169.886719 420.851562 C 1172.273438 426.816406 1210.277344 443.230469 1223.171875 444.023438 Z M 1087.546875 380.285156 C 1085.386719 384.226562 1091.164062 433.15625 1093.652344 436.582031 C 1093.796875 435.507812 1093.960938 434.601562 1094.035156 433.683594 C 1095.34375 417.140625 1092.394531 400.96875 1089.738281 384.777344 C 1089.195312 383.1875 1088.464844 381.691406 1087.546875 380.285156 Z M 1152.617188 352.839844 C 1151.257812 352.597656 1149.914062 352.273438 1148.542969 352.125 C 1132.734375 350.40625 1116.925781 348.691406 1101.105469 347.070312 C 1099.710938 347.136719 1098.351562 347.386719 1097.027344 347.820312 C 1100.65625 352.707031 1143.042969 356.648438 1152.617188 352.839844 Z M 1152.617188 352.839844 "/><path style="fill:none;stroke-width:4;stroke-linecap:butt;stroke-linejoin:miter;stroke:#ffffff;stroke-opacity:1;stroke-miterlimit:4;" d="M -0.000667802 1.999556 L 1091.118188 1.999556 " transform="matrix(0.749571,0,0,0.749571,385.871594,651.012909)"/><path style="fill:none;stroke-width:4;stroke-linecap:butt;stroke-linejoin:miter;stroke:#ffffff;stroke-opacity:1;stroke-miterlimit:4;" d="M -0.000667802 2.001231 L 1091.118188 2.001231 " transform="matrix(0.749571,0,0,0.749571,385.871594,839.132748)"/><g style="fill:#ffffff;fill-opacity:1;"><g transform="translate(399.991618, 798.095704)"><path style="stroke:none" d="M 101.46875 0 L 5.96875 0 L 5.96875 -119.375 L 101.46875 -119.375 C 105.84375 -119.375 109.84375 -118.300781 113.46875 -116.15625 C 117.101562 -114.019531 119.988281 -111.132812 122.125 -107.5 C 124.269531 -103.875 125.34375 -99.875 125.34375 -95.5 L 125.34375 -23.875 C 125.34375 -19.5 124.269531 -15.492188 122.125 -11.859375 C 119.988281 -8.234375 117.101562 -5.347656 113.46875 -3.203125 C 109.84375 -1.066406 105.84375 0 101.46875 0 Z M 29.84375 -95.5 L 29.84375 -23.875 L 101.46875 -23.875 L 101.46875 -95.5 Z M 29.84375 -95.5 "/></g></g><g style="fill:#ffffff;fill-opacity:1;"><g transform="translate(531.3102, 798.095704)"><path style="stroke:none" d="M 125.34375 -119.375 L 125.34375 -95.5 L 29.84375 -95.5 L 29.84375 -71.625 L 125.34375 -71.625 L 125.34375 -47.75 L 29.84375 -47.75 L 29.84375 -23.875 L 125.34375 -23.875 L 125.34375 0 L 29.84375 0 C 25.46875 0 21.460938 -1.066406 17.828125 -3.203125 C 14.203125 -5.347656 11.316406 -8.234375 9.171875 -11.859375 C 7.035156 -15.492188 5.96875 -19.5 5.96875 -23.875 L 5.96875 -95.5 C 5.96875 -99.875 7.035156 -103.875 9.171875 -107.5 C 11.316406 -111.132812 14.203125 -114.019531 17.828125 -116.15625 C 21.460938 -118.300781 25.46875 -119.375 29.84375 -119.375 Z M 125.34375 -119.375 "/></g></g><g style="fill:#ffffff;fill-opacity:1;"><g transform="translate(662.628782, 798.095704)"><path style="stroke:none" d="M 65.65625 0 C 60.28125 0 55.304688 -1.890625 50.734375 -5.671875 L 10.453125 -40.296875 C 7.460938 -42.972656 5.96875 -46.15625 5.96875 -49.84375 L 5.96875 -119.375 L 29.84375 -119.375 L 29.84375 -55.21875 L 65.65625 -24.328125 L 101.46875 -55.21875 L 101.46875 -119.375 L 125.34375 -119.375 L 125.1875 -49.84375 C 125.1875 -46.0625 123.75 -42.878906 120.875 -40.296875 L 80.578125 -5.671875 C 76.203125 -1.890625 71.226562 0 65.65625 0 Z M 65.65625 0 "/></g></g><g style="fill:#ffffff;fill-opacity:1;"><g transform="translate(793.947364, 798.095704)"><path style="stroke:none" d="M 29.84375 -119.375 L 101.46875 -119.375 C 105.84375 -119.375 109.84375 -118.300781 113.46875 -116.15625 C 117.101562 -114.019531 119.988281 -111.132812 122.125 -107.5 C 124.269531 -103.875 125.34375 -99.875 125.34375 -95.5 L 125.34375 0 L 101.46875 0 L 101.46875 -47.75 L 29.84375 -47.75 L 29.84375 0 L 5.96875 0 L 5.96875 -95.5 C 5.96875 -99.875 7.035156 -103.875 9.171875 -107.5 C 11.316406 -111.132812 14.203125 -114.019531 17.828125 -116.15625 C 21.460938 -118.300781 25.46875 -119.375 29.84375 -119.375 Z M 29.84375 -95.5 L 29.84375 -71.625 L 101.46875 -71.625 L 101.46875 -95.5 Z M 29.84375 -95.5 "/></g></g><g style="fill:#ffffff;fill-opacity:1;"><g transform="translate(925.265946, 798.095704)"><path style="stroke:none" d="M 125.34375 -95.5 L 125.34375 -71.625 C 125.34375 -67.25 124.269531 -63.242188 122.125 -59.609375 C 119.988281 -55.984375 117.101562 -53.097656 113.46875 -50.953125 C 109.84375 -48.816406 105.84375 -47.75 101.46875 -47.75 L 77.59375 -47.75 L 101.46875 -23.875 L 125.34375 -23.875 L 125.34375 0 L 96.6875 0 C 93.3125 0 90.429688 -1.191406 88.046875 -3.578125 L 43.875 -47.75 L 29.84375 -47.75 L 29.84375 0 L 5.96875 0 L 5.96875 -119.375 L 101.46875 -119.375 C 105.84375 -119.375 109.84375 -118.300781 113.46875 -116.15625 C 117.101562 -114.019531 119.988281 -111.132812 122.125 -107.5 C 124.269531 -103.875 125.34375 -99.875 125.34375 -95.5 Z M 101.46875 -95.5 L 29.84375 -95.5 L 29.84375 -71.625 L 101.46875 -71.625 Z M 101.46875 -95.5 "/></g></g><g style="fill:#ffffff;fill-opacity:1;"><g transform="translate(1056.584528, 798.095704)"><path style="stroke:none" d="M 29.84375 -119.375 L 101.46875 -119.375 C 105.84375 -119.375 109.84375 -118.300781 113.46875 -116.15625 C 117.101562 -114.019531 119.988281 -111.132812 122.125 -107.5 C 124.269531 -103.875 125.34375 -99.875 125.34375 -95.5 L 125.34375 0 L 101.46875 0 L 101.46875 -47.75 L 29.84375 -47.75 L 29.84375 0 L 5.96875 0 L 5.96875 -95.5 C 5.96875 -99.875 7.035156 -103.875 9.171875 -107.5 C 11.316406 -111.132812 14.203125 -114.019531 17.828125 -116.15625 C 21.460938 -118.300781 25.46875 -119.375 29.84375 -119.375 Z M 29.84375 -95.5 L 29.84375 -71.625 L 101.46875 -71.625 L 101.46875 -95.5 Z M 29.84375 -95.5 "/></g></g></g></svg>